<?xml version="1.0" encoding="UTF-8"?>
<svg width="512" height="512" viewBox="0 0 512 512" fill="none" xmlns="http://www.w3.org/2000/svg">
  <rect width="512" height="512" rx="128" fill="#2563EB"/>
  <path d="M256 128C179.307 128 128 179.307 128 256C128 332.693 179.307 384 256 384C332.693 384 384 332.693 384 256C384 179.307 332.693 128 256 128ZM256 352C197.019 352 160 314.981 160 256C160 197.019 197.019 160 256 160C314.981 160 352 197.019 352 256C352 314.981 314.981 352 256 352Z" fill="white"/>
  <path d="M256 192C238.327 192 224 206.327 224 224V288C224 305.673 238.327 320 256 320C273.673 320 288 305.673 288 288V224C288 206.327 273.673 192 256 192Z" fill="white"/>
  <path d="M256 160C238.327 160 224 174.327 224 192V224C224 241.673 238.327 256 256 256C273.673 256 288 241.673 288 224V192C288 174.327 273.673 160 256 160Z" fill="white"/>
</svg> 